<svg xmlns="http://www.w3.org/2000/svg" width="50.597" height="45.455" viewBox="0 0 50.597 45.455">
  <g id="Groupe_66" data-name="Groupe 66" transform="translate(-934.701 -1011.26)">
    <path id="Icon_ionic-ios-leaf" data-name="Icon ionic-ios-leaf" d="M32.934,25.536c-4.2-.649-4.519-.949-4.519-.949,1.266-6-1.818-12.26-6.191-15.871C16.4,3.912,7.545,7.4.648.1c-1.607-1.7-.673,19.108,7.96,27A15.178,15.178,0,0,0,24.39,30.145a9.035,9.035,0,0,0,3.14-2.751,23.812,23.812,0,0,0,5.031,1.152C33.745,28.693,34.346,25.755,32.934,25.536Zm-7.449.6c-6.3-1.891-11.79-6.572-15.344-10.24a.331.331,0,0,1,.446-.487,49.344,49.344,0,0,0,15.684,8.755A3.026,3.026,0,0,1,25.485,26.137Z" transform="translate(954.309 1011.26) rotate(39)" fill="#006453"/>
    <path id="Icon_ionic-ios-leaf-2" data-name="Icon ionic-ios-leaf" d="M12.817,2.187a6.388,6.388,0,0,0-1.759.369A6.6,6.6,0,0,1,8.649,8.734c-2.267,1.869-5.712.512-8.4,3.354-.625.663-.262-7.437,3.1-10.506A5.907,5.907,0,0,1,9.492.394a3.516,3.516,0,0,1,1.222,1.07,9.267,9.267,0,0,1,1.958-.448C13.133.959,13.366,2.1,12.817,2.187Zm-2.9-.234A14.869,14.869,0,0,0,3.947,5.939a.129.129,0,0,0,.174.189,19.2,19.2,0,0,1,6.1-3.407A1.177,1.177,0,0,0,9.918,1.954Z" transform="translate(971.546 1034.676) rotate(-3)" fill="#006453"/>
  </g>
</svg>
