<svg xmlns="http://www.w3.org/2000/svg" xmlns:xlink="http://www.w3.org/1999/xlink" width="159.338" height="188.297" viewBox="0 0 159.338 188.297">
  <defs>
    <clipPath id="clip-path">
      <path id="Tracé_9" data-name="Tracé 9" d="M25.138,92.8s31.346,14.235,25.429,52.138,28.948-1.12,28.948-1.12l29.964-55.114,11.1-61.792L91.35,34.747,37.772,84.806Z" transform="translate(-25.138 -18.435)" fill="none" stroke="#707070" stroke-width="1"/>
    </clipPath>
  </defs>
  <g id="Groupe_6" data-name="Groupe 6" transform="translate(0)">
    <path id="Icon_ionic-ios-leaf" data-name="Icon ionic-ios-leaf" d="M75.73,58.72c-9.665-1.493-10.392-2.183-10.392-2.183C68.249,42.73,61.158,28.345,51.1,20.042,37.705,9,17.35,17.019,1.49.227-2.2-3.691-.058,44.166,19.794,62.3c14.516,13.247,31.607,9.18,36.29,7.015A20.776,20.776,0,0,0,63.3,62.992c7.743,2.426,11.568,2.649,11.568,2.649C77.6,65.978,78.977,59.223,75.73,58.72ZM58.6,60.1c-14.5-4.347-27.11-15.113-35.282-23.546a.761.761,0,0,1,1.026-1.119A113.463,113.463,0,0,0,60.412,55.566,6.957,6.957,0,0,1,58.6,60.1Z" transform="translate(45.087 0) rotate(39)" fill="#6dc249"/>
    <path id="Tracé_3" data-name="Tracé 3" d="M2376.374,3713.32c3.175-5.784,7.373-15.087,3.061-33.349s-17.128-22.8-17.128-22.8-14.857-6.467-19.848-9.983-8.77-7.884-9.87-10.77-4.2-1.594-4.426,2.263a19.575,19.575,0,0,0,4.426,13.84c4.083,5.328,16.786,10.659,20.3,12.931s2.725,6.351-6.577,4.308-17.242-10.55-22.347-22.572-8.392-23.592-10.661-27.673-4.083-5.22-5.329-4.993-.138,4.826,1.485,14.558,2.94,20.492,4.639,26.843a58.815,58.815,0,0,0,10.549,21.212c5.558,6.922,14.972,12.364,25.635,17.012,10.117,4.413,13.506,8.234,16.932,13.763S2373.2,3719.106,2376.374,3713.32Z" transform="translate(-2304.74 -3527.452)" fill="#e2cf6e"/>
    <path id="Icon_ionic-ios-leaf-2" data-name="Icon ionic-ios-leaf" d="M29.472,5.03c-3.761.581-4.045.85-4.045.85,1.133,5.373-1.627,10.972-5.54,14.2C14.674,24.381,6.752,21.259.58,27.794c-1.438,1.525-.6-17.1,7.123-24.158A13.582,13.582,0,0,1,21.826.906a8.085,8.085,0,0,1,2.81,2.462,21.309,21.309,0,0,1,4.5-1.031C30.2,2.205,30.736,4.834,29.472,5.03Zm-6.666-.537c-5.642,1.692-10.551,5.882-13.731,9.164a.3.3,0,0,0,.4.436A44.157,44.157,0,0,1,23.511,6.257,2.708,2.708,0,0,0,22.807,4.493Z" transform="translate(84.722 53.844) rotate(-3)" fill="#6dc249"/>
    <g id="Groupe_de_masques_4" data-name="Groupe de masques 4" transform="translate(63.894 41.212)" clip-path="url(#clip-path)">
      <path id="Tracé_2" data-name="Tracé 2" d="M2313.008,3726.744c-3.607-6.569-8.373-17.138-3.479-37.875s19.456-25.9,19.456-25.9,16.878-7.342,22.547-11.335,9.96-8.958,11.208-12.235,4.771-1.806,5.031,2.571-.393,9.665-5.031,15.719-19.067,12.111-23.061,14.687-3.092,7.217,7.473,4.9,19.582-11.983,25.38-25.638,9.533-26.8,12.11-31.437,4.638-5.927,6.056-5.668.155,5.482-1.689,16.535-3.334,23.277-5.269,30.489a66.73,66.73,0,0,1-11.981,24.092c-6.314,7.858-17,14.042-29.116,19.326-11.495,5.011-15.344,9.35-19.234,15.63S2316.616,3733.314,2313.008,3726.744Z" transform="translate(-2298.954 -3602.858)" fill="#e2cf6e"/>
    </g>
  </g>
</svg>
