<svg xmlns="http://www.w3.org/2000/svg" xmlns:xlink="http://www.w3.org/1999/xlink" width="39" height="46" viewBox="0 0 39 46">
  <defs>
    <clipPath id="clip-path">
      <rect id="Rectangle_51" data-name="Rectangle 51" width="39" height="46" transform="translate(7196 9434)" fill="none" stroke="#707070" stroke-width="1"/>
    </clipPath>
    <clipPath id="clip-path-2">
      <path id="Tracé_9" data-name="Tracé 9" d="M25.138,36.6A11.787,11.787,0,0,1,31.35,49.339c-1.446,9.26,7.072-.274,7.072-.274l12.542-18.4L49.557,18.435,41.313,22.42,28.224,34.649Z" fill="none" stroke="#707070" stroke-width="1"/>
    </clipPath>
  </defs>
  <g id="Groupe_de_masques_27" data-name="Groupe de masques 27" transform="translate(-7196 -9434)" clip-path="url(#clip-path)">
    <g id="Groupe_73" data-name="Groupe 73" transform="translate(7186.579 9425.814)">
      <path id="Icon_ionic-ios-leaf" data-name="Icon ionic-ios-leaf" d="M21.876,18.844a9.221,9.221,0,0,1-2.539-.533A9.519,9.519,0,0,0,15.86,9.395C12.587,6.7,7.614,8.657,3.74,4.554c-.9-.957-.378,10.734,4.471,15.165a8.526,8.526,0,0,0,8.865,1.714,5.075,5.075,0,0,0,1.764-1.545,13.376,13.376,0,0,0,2.826.647C22.332,20.617,22.669,18.967,21.876,18.844Zm-4.184.337c-3.542-1.062-6.623-3.692-8.619-5.752a.186.186,0,0,1,.251-.273,27.718,27.718,0,0,0,8.811,4.918A1.7,1.7,0,0,1,17.692,19.181Z" transform="translate(20.751 2.746) rotate(39)" fill="#006453"/>
      <path id="Tracé_3" data-name="Tracé 3" d="M2324.28,3638.639c.776-1.413,1.8-3.686.748-8.146s-4.184-5.57-4.184-5.57a42.911,42.911,0,0,1-4.849-2.438,7.049,7.049,0,0,1-2.411-2.631c-.269-.705-1.026-.389-1.082.553a4.783,4.783,0,0,0,1.082,3.381c1,1.3,4.1,2.6,4.96,3.159s.665,1.551-1.607,1.053-4.212-2.577-5.459-5.514-2.05-5.764-2.6-6.761-1-1.275-1.3-1.22-.033,1.179.363,3.557.718,5.006,1.133,6.558a14.36,14.36,0,0,0,2.577,5.182,16.486,16.486,0,0,0,6.262,4.156,7.683,7.683,0,0,1,4.136,3.362C2322.88,3638.668,2323.5,3640.052,2324.28,3638.639Z" transform="translate(-2297.252 -3584.865)" fill="#E2CF6E"/>
      <path id="Icon_ionic-ios-leaf-2" data-name="Icon ionic-ios-leaf" d="M7.2,1.229a3.589,3.589,0,0,0-.988.208,3.7,3.7,0,0,1-1.353,3.47C3.585,5.956,1.649,5.193.142,6.79c-.351.373-.147-4.177,1.74-5.9A3.318,3.318,0,0,1,5.332.221a1.975,1.975,0,0,1,.686.6,5.206,5.206,0,0,1,1.1-.252C7.377.539,7.509,1.181,7.2,1.229ZM5.572,1.1A8.353,8.353,0,0,0,2.217,3.336a.072.072,0,0,0,.1.106A10.787,10.787,0,0,1,5.744,1.529.661.661,0,0,0,5.572,1.1Z" transform="translate(30.226 21.52) rotate(-3)" fill="#006453"/>
      <g id="Groupe_de_masques_4" data-name="Groupe de masques 4" clip-path="url(#clip-path-2)">
        <path id="Tracé_2" data-name="Tracé 2" d="M2308.8,3641.918c-.881-1.6-2.046-4.186-.85-9.253s4.753-6.327,4.753-6.327a48.717,48.717,0,0,0,5.508-2.77,8.008,8.008,0,0,0,2.738-2.988c.305-.8,1.166-.442,1.229.627a5.438,5.438,0,0,1-1.229,3.84c-1.133,1.479-4.658,2.958-5.634,3.588s-.755,1.763,1.826,1.2,4.784-2.927,6.2-6.263,2.329-6.546,2.958-7.679,1.133-1.448,1.479-1.385.038,1.339-.413,4.04-.815,5.686-1.287,7.448a16.306,16.306,0,0,1-2.927,5.886c-1.542,1.92-4.154,3.431-7.113,4.721-2.808,1.225-3.748,2.285-4.7,3.818S2309.682,3643.524,2308.8,3641.918Z" transform="translate(-2280.229 -3593.219)" fill="#E2CF6E"/>
      </g>
    </g>
  </g>
</svg>
