<svg xmlns="http://www.w3.org/2000/svg" width="24.743" height="24.743" viewBox="0 0 24.743 24.743">
  <path id="phone-solid" d="M23.834,1.179,18.808.019A1.167,1.167,0,0,0,17.479.69L15.159,6.1a1.157,1.157,0,0,0,.333,1.353l2.929,2.4a17.91,17.91,0,0,1-8.563,8.563l-2.4-2.929a1.159,1.159,0,0,0-1.353-.333L.7,17.474a1.174,1.174,0,0,0-.677,1.334l1.16,5.026a1.159,1.159,0,0,0,1.131.9A22.421,22.421,0,0,0,24.733,2.309,1.158,1.158,0,0,0,23.834,1.179Z" transform="translate(0.01 0.011)" fill="#006453"/>
</svg>
